<svg width="128" height="128" xmlns="http://www.w3.org/2000/svg">

 <g>
  <title>background</title>
  <rect fill="none" id="canvas_background" height="130" width="130" y="-1" x="-1"/>
 </g>
 <g>
  <title>Layer 1</title>
  <g id="svg_1">
   <path id="svg_2" d="m7.407318,24.242681l48.37,-12.96l-0.06,3.12l-3.27,0.88l-34.91,60.46l3.29,12.26l34.63,-59.98l-0.12,6.2l-33.42,57.87l3.28,12.26l29.76,-51.55l-0.12,6.2l-28.07,48.63c-0.14,0.23 -0.32,0.42 -0.54,0.54l0.78,2.93c0.25,0.94 0.87,1.69 1.65,2.14c0.78,0.45 1.74,0.61 2.68,0.36l2.99,-0.8c0.01,-0.23 0.07,-0.47 0.2,-0.69l19.95,-34.53l-0.12,6.2l-16.15,27.98l12.25,-3.28l3.53,-6.12l-0.16,8.32l-21.71,5.81c-1.74,0.47 -3.51,0.18 -4.96,-0.66c-1.45,-0.84 -2.58,-2.23 -3.05,-3.97l-21.33,-79.61c-0.47,-1.74 -0.18,-3.51 0.66,-4.96c0.84,-1.45 2.23,-2.58 3.97,-3.05l0,0zm59.84,-8.31l51.66,0c1.8,0 3.43,0.74 4.62,1.92c1.18,1.18 1.92,2.82 1.92,4.62l0,82.43c0,1.8 -0.74,3.43 -1.92,4.62c-1.18,1.18 -2.82,1.92 -4.62,1.92l-51.66,0c-1.79,0 -3.43,-0.74 -4.61,-1.92l-0.01,0c-1.18,-1.18 -1.92,-2.82 -1.92,-4.62l0,-82.43c0,-1.8 0.74,-3.43 1.92,-4.62l0.09,-0.08c1.18,-1.14 2.78,-1.84 4.53,-1.84l0,0zm42.55,81.32l0.6,0.09l2.54,7.25l1.71,0l2.52,-7.25l0.59,-0.09l0,-1l-2.84,0l0,1l0.58,0.1l-0.37,1.15l-2.7,0l-0.37,-1.15l0.58,-0.1l0,-1l-2.84,0l0,1l0,0zm3.02,2.48l1.91,0l-0.94,2.94l-0.04,0l-0.93,-2.94l0,0zm-44.61,-69.45l0.6,-0.09l2.54,-7.25l1.71,0l2.52,7.25l0.59,0.09l0,1l-2.84,0l0,-1l0.58,-0.1l-0.37,-1.15l-2.7,0l-0.37,1.15l0.58,0.1l0,1l-2.84,0l0,-1l0,0zm3.03,-2.48l1.91,0l-0.94,-2.94l-0.04,0l-0.93,2.94l0,0zm26.86,50.69l-3.03,-6.98c5.42,5.12 13.69,2.34 13.89,-5.65c0.14,-5.74 -5.34,-13.24 -16.1,-22.94c-10.69,9.7 -16.22,17.15 -15.64,22.94c0.71,7.02 7.77,10.22 13.21,5.65l-2.15,6.98l9.82,0l0,0zm20.8,-59.56l-51.65,0c-0.94,0 -1.8,0.37 -2.44,0.98l-0.06,0.06c-0.64,0.64 -1.04,1.53 -1.04,2.5l0,82.43c0,0.97 0.4,1.86 1.04,2.5c0.64,0.64 1.53,1.04 2.5,1.04l51.66,0c0.97,0 1.86,-0.4 2.5,-1.04c0.64,-0.64 1.04,-1.53 1.04,-2.5l0,-82.43c0,-0.97 -0.4,-1.86 -1.04,-2.5c-0.65,-0.65 -1.53,-1.04 -2.51,-1.04l0,0zm-99.16,5.11l-10.97,19l3.29,12.25l19.94,-34.54l-12.26,3.29l0,0zm-12.06,14.9l7.98,-13.81l-7.47,2c-0.94,0.25 -1.69,0.87 -2.14,1.65c-0.45,0.79 -0.61,1.75 -0.36,2.69l1.99,7.47l0,0zm28.41,-19.28l-22.94,39.73l3.29,12.26l31.91,-55.28l-12.26,3.29l0,0z"/>
  </g>
 </g>
</svg>